<?xml version="1.0" encoding="UTF-8"?>
<svg xmlns="http://www.w3.org/2000/svg" xmlns:xlink="http://www.w3.org/1999/xlink" width="50px" height="50px" viewBox="0 0 50 50" version="1.1">
<defs>
<clipPath id="clip1">
  <path d="M 20.667969 17.734375 L 36.933594 17.734375 L 36.933594 37.527344 L 20.667969 37.527344 Z M 20.667969 17.734375 "/>
</clipPath>
<clipPath id="clip2">
  <path d="M 33.066406 14.132812 L 47.601562 14.132812 L 47.601562 37.527344 L 33.066406 37.527344 Z M 33.066406 14.132812 "/>
</clipPath>
</defs>
<g id="surface1">
<rect x="0" y="0" width="50" height="50" style="fill:rgb(100%,100%,100%);fill-opacity:1;stroke:none;"/>
<path style=" stroke:none;fill-rule:nonzero;fill:rgb(0%,0%,0%);fill-opacity:1;" d="M 22.527344 31.175781 C 22.128906 31.175781 21.78125 30.886719 21.71875 30.480469 C 21.648438 30.035156 21.957031 29.613281 22.40625 29.546875 L 25.800781 29.027344 C 26.25 28.957031 26.667969 29.265625 26.734375 29.714844 C 26.804688 30.164062 26.496094 30.582031 26.046875 30.652344 L 22.65625 31.167969 C 22.613281 31.175781 22.574219 31.175781 22.527344 31.175781 Z M 22.527344 31.175781 "/>
<path style=" stroke:none;fill-rule:nonzero;fill:rgb(0%,0%,0%);fill-opacity:1;" d="M 12.773438 32.667969 C 12.375 32.667969 12.023438 32.378906 11.960938 31.972656 C 11.894531 31.527344 12.199219 31.105469 12.652344 31.039062 L 19.863281 29.933594 C 20.308594 29.867188 20.730469 30.175781 20.796875 30.625 C 20.867188 31.070312 20.558594 31.488281 20.109375 31.558594 L 12.898438 32.660156 C 12.855469 32.664062 12.816406 32.667969 12.773438 32.667969 Z M 12.773438 32.667969 "/>
<path style=" stroke:none;fill-rule:nonzero;fill:rgb(0%,0%,0%);fill-opacity:1;" d="M 7.628906 33.453125 C 7.230469 33.453125 6.878906 33.164062 6.820312 32.757812 C 6.75 32.3125 7.058594 31.890625 7.507812 31.824219 L 9.046875 31.585938 C 9.496094 31.519531 9.914062 31.824219 9.980469 32.277344 C 10.050781 32.722656 9.742188 33.140625 9.292969 33.210938 L 7.753906 33.449219 C 7.710938 33.453125 7.667969 33.453125 7.628906 33.453125 Z M 7.628906 33.453125 "/>
<path style=" stroke:none;fill-rule:nonzero;fill:rgb(0%,0%,0%);fill-opacity:1;" d="M 8.699219 30.136719 C 8.300781 30.136719 7.949219 29.84375 7.886719 29.441406 C 7.820312 28.992188 8.128906 28.574219 8.578125 28.503906 L 22.421875 26.390625 C 22.871094 26.320312 23.289062 26.628906 23.359375 27.078125 C 23.425781 27.527344 23.117188 27.945312 22.667969 28.011719 L 8.824219 30.125 C 8.78125 30.132812 8.738281 30.136719 8.699219 30.136719 Z M 8.699219 30.136719 "/>
<path style=" stroke:none;fill-rule:nonzero;fill:rgb(0%,0%,0%);fill-opacity:1;" d="M 6.011719 27.417969 C 5.613281 27.417969 5.261719 27.125 5.203125 26.71875 C 5.132812 26.273438 5.441406 25.855469 5.890625 25.785156 L 16.167969 24.214844 C 16.617188 24.144531 17.035156 24.453125 17.101562 24.902344 C 17.171875 25.351562 16.863281 25.769531 16.414062 25.839844 L 6.136719 27.40625 C 6.097656 27.410156 6.054688 27.417969 6.011719 27.417969 Z M 6.011719 27.417969 "/>
<path style=" stroke:none;fill-rule:nonzero;fill:rgb(0%,0%,0%);fill-opacity:1;" d="M 2.445312 27.960938 C 2.046875 27.960938 1.695312 27.667969 1.632812 27.265625 C 1.566406 26.816406 1.871094 26.398438 2.324219 26.328125 L 3.101562 26.210938 C 3.550781 26.136719 3.96875 26.449219 4.039062 26.898438 C 4.105469 27.34375 3.800781 27.765625 3.347656 27.832031 L 2.570312 27.953125 C 2.527344 27.957031 2.484375 27.960938 2.445312 27.960938 Z M 2.445312 27.960938 "/>
<path style=" stroke:none;fill-rule:nonzero;fill:rgb(0%,0%,0%);fill-opacity:1;" d="M 19.671875 25.332031 C 19.269531 25.332031 18.921875 25.039062 18.859375 24.632812 C 18.789062 24.1875 19.097656 23.765625 19.546875 23.699219 L 21.320312 23.425781 C 21.773438 23.359375 22.1875 23.664062 22.257812 24.113281 C 22.324219 24.5625 22.019531 24.980469 21.570312 25.050781 L 19.792969 25.324219 C 19.753906 25.324219 19.714844 25.332031 19.671875 25.332031 Z M 19.671875 25.332031 "/>
<path style=" stroke:none;fill-rule:nonzero;fill:rgb(0%,0%,0%);fill-opacity:1;" d="M 12.570312 23.617188 C 12.171875 23.617188 11.820312 23.324219 11.757812 22.921875 C 11.691406 22.472656 11.996094 22.054688 12.449219 21.984375 L 22.746094 20.414062 C 23.195312 20.34375 23.613281 20.652344 23.683594 21.101562 C 23.75 21.546875 23.445312 21.96875 22.996094 22.035156 L 12.695312 23.609375 C 12.652344 23.613281 12.609375 23.617188 12.570312 23.617188 Z M 12.570312 23.617188 "/>
<g clip-path="url(#clip1)" clip-rule="nonzero">
<path style=" stroke:none;fill-rule:nonzero;fill:rgb(0%,0%,0%);fill-opacity:1;" d="M 36.105469 37.496094 C 36.019531 37.496094 35.941406 37.484375 35.859375 37.460938 L 23.378906 33.535156 C 22.945312 33.398438 22.703125 32.9375 22.839844 32.507812 C 22.980469 32.074219 23.4375 31.832031 23.871094 31.972656 L 35.097656 35.5 L 33.242188 23.113281 L 21.25 19.34375 C 20.816406 19.207031 20.574219 18.746094 20.710938 18.3125 C 20.847656 17.882812 21.308594 17.640625 21.742188 17.777344 L 34.222656 21.699219 C 34.523438 21.792969 34.742188 22.050781 34.789062 22.363281 L 36.917969 36.554688 C 36.960938 36.835938 36.855469 37.117188 36.636719 37.300781 C 36.488281 37.429688 36.296875 37.496094 36.105469 37.496094 Z M 36.105469 37.496094 "/>
</g>
<g clip-path="url(#clip2)" clip-rule="nonzero">
<path style=" stroke:none;fill-rule:nonzero;fill:rgb(0%,0%,0%);fill-opacity:1;" d="M 36.105469 37.496094 C 35.996094 37.496094 35.882812 37.476562 35.78125 37.433594 C 35.519531 37.320312 35.335938 37.082031 35.292969 36.800781 L 33.160156 22.605469 C 33.117188 22.296875 33.25 21.988281 33.503906 21.808594 L 44.167969 14.351562 C 44.402344 14.1875 44.703125 14.160156 44.964844 14.269531 C 45.226562 14.382812 45.410156 14.621094 45.453125 14.902344 L 47.582031 29.097656 C 47.628906 29.402344 47.496094 29.714844 47.242188 29.890625 L 36.574219 37.351562 C 36.4375 37.449219 36.273438 37.496094 36.105469 37.496094 Z M 34.863281 22.863281 L 36.722656 35.242188 L 45.882812 28.835938 L 44.027344 16.457031 Z M 34.863281 22.863281 "/>
</g>
<path style=" stroke:none;fill-rule:nonzero;fill:rgb(0%,0%,0%);fill-opacity:1;" d="M 33.976562 23.304688 C 33.890625 23.304688 33.808594 23.292969 33.730469 23.265625 L 21.25 19.34375 C 20.949219 19.25 20.730469 18.996094 20.683594 18.683594 C 20.636719 18.375 20.769531 18.0625 21.023438 17.886719 L 31.6875 10.425781 C 31.894531 10.28125 32.160156 10.238281 32.40625 10.316406 L 44.886719 14.238281 C 45.183594 14.332031 45.40625 14.585938 45.453125 14.898438 C 45.5 15.207031 45.367188 15.519531 45.113281 15.695312 L 34.445312 23.15625 C 34.308594 23.253906 34.144531 23.304688 33.976562 23.304688 Z M 23.332031 18.273438 L 33.835938 21.578125 L 42.800781 15.304688 L 32.296875 12.003906 Z M 23.332031 18.273438 "/>
</g>
</svg>
