<!DOCTYPE svg PUBLIC "-//W3C//DTD SVG 1.1//EN" "http://www.w3.org/Graphics/SVG/1.1/DTD/svg11.dtd">
<!-- Uploaded to: SVG Repo, www.svgrepo.com, Transformed by: SVG Repo Mixer Tools -->
<svg height="64px" width="64px" version="1.1" id="Layer_1" xmlns="http://www.w3.org/2000/svg" xmlns:xlink="http://www.w3.org/1999/xlink" viewBox="0 0 504 504" xml:space="preserve" fill="#000000">
<g id="SVGRepo_bgCarrier" stroke-width="0"/>
<g id="SVGRepo_tracerCarrier" stroke-linecap="round" stroke-linejoin="round"/>
<g id="SVGRepo_iconCarrier"> <path style="fill:#E07D46;" d="M2,6v492h496V6H2z"/> <polygon style="fill:#DF5C4E;" points="284.4,193.6 248.8,150.4 213.6,192.8 213.6,192.8 165.2,252.8 162,257.6 197.6,257.6 197.6,311.2 197.6,353.6 301.6,353.6 301.6,311.2 301.6,257.6 336.4,257.6 "/> <path d="M300,356H196c-2.4,0-4-1.6-4-4v-92h-28.4c-1.6,0-2.8-0.8-3.6-2.4c-0.8-1.2-0.4-3.2,0.4-4.4l84-106.4c0.8-0.8,2-1.6,3.2-1.6 l0,0c1.2,0,2.4,0.4,3.2,1.6l87.6,106.4c0.8,1.2,1.2,2.8,0.4,4.4s-2,2.4-3.6,2.4H304v92C304,354.4,302.4,356,300,356z M200,348h96 v-92c0-2.4,1.6-4,4-4h26.4l-78.8-96l-76,96H196c2.4,0,4,1.6,4,4L200,348L200,348z"/> <path d="M500,504H4c-2.4,0-4-1.6-4-4V4c0-2.4,1.6-4,4-4h496c2.4,0,4,1.6,4,4v496C504,502.4,502.4,504,500,504z M8,496h488V8H8V496z"/> <path d="M440,448H68c-2.4,0-4-1.6-4-4V68c0-2.4,1.6-4,4-4h372c2.4,0,4,1.6,4,4v376C444,446.4,442.4,448,440,448z M72,440h364V72H72 V440z"/> <path d="M67.2,70c-1.2,0-2.4-0.4-3.2-1.2l-42-48c-1.6-1.6-1.2-4,0.4-5.6c1.6-1.6,4-1.2,5.6,0.4l42,48c1.6,1.6,1.2,4-0.4,5.6 C68.8,69.6,68,70,67.2,70z"/> <path d="M481.2,482c-0.8,0-1.6-0.4-2.4-0.8l-44-34c-1.6-1.2-2-4-0.8-5.6s4-2,5.6-0.8l44,34c1.6,1.2,2,4,0.8,5.6 C483.6,481.6,482.4,482,481.2,482z"/> <path d="M438.8,70c-0.8,0-2-0.4-2.8-1.2c-1.6-1.6-1.6-4,0-5.6l46-48c1.6-1.6,4-1.6,5.6,0s1.6,4,0,5.6l-46,48 C441.2,69.6,440,70,438.8,70z"/> <path d="M28.8,482c-1.2,0-2.4-0.4-3.2-1.6c-1.6-1.6-1.2-4.4,0.4-5.6l40-34c1.6-1.6,4.4-1.2,5.6,0.4c1.6,1.6,1.2,4.4-0.4,5.6l-40,34 C30.8,482,30,482,28.8,482z"/> <path d="M434,200H290c-2.4,0-4-1.6-4-4s1.6-4,4-4h144c2.4,0,4,1.6,4,4S436.4,200,434,200z"/> <path d="M210,200H74c-2.4,0-4-1.6-4-4s1.6-4,4-4h136c2.4,0,4,1.6,4,4S212.4,200,210,200z"/> <path d="M434,260H334c-2.4,0-4-1.6-4-4s1.6-4,4-4h100c2.4,0,4,1.6,4,4S436.4,260,434,260z"/> <path d="M170,260H74c-2.4,0-4-1.6-4-4s1.6-4,4-4h96c2.4,0,4,1.6,4,4S172.4,260,170,260z"/> <path d="M434,316H302c-2.4,0-4-1.6-4-4s1.6-4,4-4h132c2.4,0,4,1.6,4,4S436.4,316,434,316z"/> <path d="M194,316H74c-2.4,0-4-1.6-4-4s1.6-4,4-4h120c2.4,0,4,1.6,4,4S196.4,316,194,316z"/> <path d="M434,376H74c-2.4,0-4-1.6-4-4s1.6-4,4-4h360c2.4,0,4,1.6,4,4S436.4,376,434,376z"/> <path d="M434,140H74c-2.4,0-4-1.6-4-4s1.6-4,4-4h360c2.4,0,4,1.6,4,4S436.4,140,434,140z"/> </g>
</svg>