<svg xmlns="http://www.w3.org/2000/svg" xmlns:xlink="http://www.w3.org/1999/xlink" width="500" zoomAndPan="magnify" viewBox="0 0 375 374.999991" height="500" preserveAspectRatio="xMidYMid meet" version="1.0"><defs><clipPath id="d8935d54bc"><path d="M 39 87.722656 L 242 87.722656 L 242 239 L 39 239 Z M 39 87.722656 " clip-rule="nonzero"/></clipPath><clipPath id="bc6070eeb3"><path d="M 172 216 L 339.667969 216 L 339.667969 277 L 172 277 Z M 172 216 " clip-rule="nonzero"/></clipPath><clipPath id="79645a01f5"><path d="M 190 260 L 218 260 L 218 287.222656 L 190 287.222656 Z M 190 260 " clip-rule="nonzero"/></clipPath><clipPath id="cafa7af9f1"><path d="M 297 260 L 325 260 L 325 287.222656 L 297 287.222656 Z M 297 260 " clip-rule="nonzero"/></clipPath><clipPath id="051b488ad4"><path d="M 35.167969 267 L 160 267 L 160 271 L 35.167969 271 Z M 35.167969 267 " clip-rule="nonzero"/></clipPath></defs><g clip-path="url(#d8935d54bc)"><path fill="#ffffff" d="M 58.601562 148.085938 L 65.699219 144.574219 L 65.699219 232.320312 L 39.425781 232.320312 L 39.425781 238.925781 L 168.082031 238.925781 L 168.082031 208.636719 L 161.734375 208.636719 L 161.734375 225.171875 L 157.453125 225.171875 L 157.453125 205.589844 L 136.636719 205.589844 L 136.636719 207.195312 L 148.21875 207.195312 L 148.21875 208.636719 L 136.636719 208.636719 L 136.636719 225.171875 L 132.355469 225.171875 L 132.355469 205.589844 L 111.542969 205.589844 L 111.542969 207.195312 L 123.125 207.195312 L 123.125 208.636719 L 111.542969 208.636719 L 111.542969 225.171875 L 107.261719 225.171875 L 107.261719 205.589844 L 86.445312 205.589844 L 86.445312 207.195312 L 98.03125 207.195312 L 98.03125 208.636719 L 86.445312 208.636719 L 86.445312 225.171875 L 73.445312 225.171875 L 73.445312 140.742188 L 147.8125 103.945312 L 220.644531 139.378906 L 220.644531 189.65625 L 228.390625 189.65625 L 228.390625 143.148438 L 235.53125 146.621094 L 241.882812 133.5625 L 147.761719 87.769531 L 52.164062 135.070312 Z M 58.601562 148.085938 " fill-opacity="1" fill-rule="nonzero"/></g><path fill="#ffffff" d="M 161.734375 205.589844 L 168.082031 205.589844 L 168.082031 207.195312 L 161.734375 207.195312 Z M 161.734375 205.589844 " fill-opacity="1" fill-rule="nonzero"/><path fill="#ffffff" d="M 111.542969 182.378906 L 123.125 182.378906 L 123.125 183.816406 L 111.542969 183.816406 L 111.542969 201.585938 L 132.355469 201.585938 L 132.355469 180.773438 L 111.542969 180.773438 Z M 111.542969 182.378906 " fill-opacity="1" fill-rule="nonzero"/><path fill="#ffffff" d="M 86.445312 182.378906 L 98.03125 182.378906 L 98.03125 183.816406 L 86.445312 183.816406 L 86.445312 201.585938 L 107.261719 201.585938 L 107.261719 180.773438 L 86.445312 180.773438 Z M 86.445312 182.378906 " fill-opacity="1" fill-rule="nonzero"/><path fill="#ffffff" d="M 136.636719 182.378906 L 148.21875 182.378906 L 148.21875 183.816406 L 136.636719 183.816406 L 136.636719 201.585938 L 157.453125 201.585938 L 157.453125 180.773438 L 136.636719 180.773438 Z M 136.636719 182.378906 " fill-opacity="1" fill-rule="nonzero"/><path fill="#ffffff" d="M 161.734375 180.773438 L 161.734375 182.378906 L 173.316406 182.378906 L 173.316406 183.816406 L 161.734375 183.816406 L 161.734375 201.585938 L 168.082031 201.585938 L 168.082031 189.65625 L 182.546875 189.65625 L 182.546875 180.773438 Z M 161.734375 180.773438 " fill-opacity="1" fill-rule="nonzero"/><path fill="#ffffff" d="M 186.828125 180.773438 L 186.828125 182.378906 L 198.410156 182.378906 L 198.410156 183.816406 L 186.828125 183.816406 L 186.828125 189.65625 L 207.640625 189.65625 L 207.640625 180.773438 Z M 186.828125 180.773438 " fill-opacity="1" fill-rule="nonzero"/><path fill="#ffffff" d="M 144.902344 131.132812 L 124.089844 131.132812 L 124.089844 132.738281 L 135.671875 132.738281 L 135.671875 134.179688 L 124.089844 134.179688 L 124.089844 151.949219 L 144.902344 151.949219 Z M 144.902344 131.132812 " fill-opacity="1" fill-rule="nonzero"/><path fill="#ffffff" d="M 170 131.132812 L 149.183594 131.132812 L 149.183594 132.738281 L 160.765625 132.738281 L 160.765625 134.179688 L 149.183594 134.179688 L 149.183594 151.949219 L 170 151.949219 Z M 170 131.132812 " fill-opacity="1" fill-rule="nonzero"/><path fill="#ffffff" d="M 111.542969 157.558594 L 123.125 157.558594 L 123.125 159 L 111.542969 159 L 111.542969 176.765625 L 132.355469 176.765625 L 132.355469 155.953125 L 111.542969 155.953125 Z M 111.542969 157.558594 " fill-opacity="1" fill-rule="nonzero"/><path fill="#ffffff" d="M 86.445312 157.558594 L 98.03125 157.558594 L 98.03125 159 L 86.445312 159 L 86.445312 176.765625 L 107.261719 176.765625 L 107.261719 155.953125 L 86.445312 155.953125 Z M 86.445312 157.558594 " fill-opacity="1" fill-rule="nonzero"/><path fill="#ffffff" d="M 136.636719 157.558594 L 148.21875 157.558594 L 148.21875 159 L 136.636719 159 L 136.636719 176.765625 L 157.453125 176.765625 L 157.453125 155.953125 L 136.636719 155.953125 Z M 136.636719 157.558594 " fill-opacity="1" fill-rule="nonzero"/><path fill="#ffffff" d="M 161.734375 157.558594 L 173.316406 157.558594 L 173.316406 159 L 161.734375 159 L 161.734375 176.765625 L 182.546875 176.765625 L 182.546875 155.953125 L 161.734375 155.953125 Z M 161.734375 157.558594 " fill-opacity="1" fill-rule="nonzero"/><path fill="#ffffff" d="M 207.640625 155.953125 L 186.828125 155.953125 L 186.828125 157.558594 L 198.410156 157.558594 L 198.410156 159 L 186.828125 159 L 186.828125 176.765625 L 207.640625 176.765625 Z M 207.640625 155.953125 " fill-opacity="1" fill-rule="nonzero"/><path fill="#ffffff" d="M 172.921875 194.5 L 280.640625 194.5 L 280.640625 249.464844 L 172.921875 249.464844 Z M 172.921875 194.5 " fill-opacity="1" fill-rule="nonzero"/><g clip-path="url(#bc6070eeb3)"><path fill="#ffffff" d="M 284.320312 252.878906 L 177.546875 252.878906 L 177.546875 258.71875 L 172.921875 258.71875 L 172.921875 269.824219 L 177.546875 269.824219 L 177.546875 273.078125 L 184.035156 273.078125 L 184.035156 276.445312 L 187.890625 276.445312 C 187.742188 275.574219 187.648438 274.683594 187.648438 273.769531 C 187.648438 264.75 194.988281 257.414062 204.007812 257.414062 C 213.027344 257.414062 220.363281 264.75 220.363281 273.769531 C 220.363281 274.683594 220.269531 275.574219 220.125 276.445312 L 223.976562 276.445312 L 223.976562 273.078125 L 290.859375 273.078125 L 290.859375 276.445312 L 294.710938 276.445312 C 294.566406 275.574219 294.472656 274.683594 294.472656 273.769531 C 294.472656 264.75 301.808594 257.414062 310.828125 257.414062 C 319.847656 257.414062 327.1875 264.75 327.1875 273.769531 C 327.1875 274.683594 327.09375 275.574219 326.949219 276.445312 L 330.800781 276.445312 L 330.800781 273.078125 L 332.550781 273.078125 C 334.558594 273.078125 336.246094 271.6875 336.738281 269.824219 L 339.808594 269.824219 L 339.808594 258.71875 L 336.894531 258.71875 L 336.894531 250.476562 C 336.894531 248.089844 335.980469 244.40625 334.867188 242.292969 L 323.113281 220.03125 C 322 217.917969 319.132812 216.191406 316.746094 216.191406 L 288.664062 216.191406 C 287.40625 216.191406 286.277344 216.742188 285.484375 217.601562 C 284.769531 218.378906 284.320312 219.402344 284.320312 220.53125 Z M 301.363281 251.101562 L 291.535156 251.101562 L 291.535156 248.789062 L 301.363281 248.789062 Z M 319.273438 222.058594 L 329.410156 241.257812 L 300.609375 241.257812 L 300.609375 220.53125 L 316.746094 220.53125 C 317.519531 220.53125 318.910156 221.375 319.273438 222.058594 Z M 298.289062 220.53125 L 298.289062 241.261719 L 288.664062 241.261719 L 288.664062 220.53125 Z M 298.289062 220.53125 " fill-opacity="1" fill-rule="nonzero"/></g><g clip-path="url(#79645a01f5)"><path fill="#ffffff" d="M 204.007812 287.234375 C 211.441406 287.234375 217.46875 281.207031 217.46875 273.769531 C 217.46875 266.335938 211.441406 260.308594 204.007812 260.308594 C 196.574219 260.308594 190.546875 266.335938 190.546875 273.769531 C 190.546875 281.207031 196.574219 287.234375 204.007812 287.234375 Z M 196.335938 273.769531 C 196.335938 269.539062 199.777344 266.097656 204.007812 266.097656 C 208.238281 266.097656 211.679688 269.539062 211.679688 273.769531 C 211.679688 278 208.238281 281.441406 204.007812 281.441406 C 199.777344 281.441406 196.335938 278 196.335938 273.769531 Z M 196.335938 273.769531 " fill-opacity="1" fill-rule="nonzero"/></g><path fill="#ffffff" d="M 206.785156 273.769531 C 206.785156 272.238281 205.539062 270.996094 204.007812 270.996094 C 202.472656 270.996094 201.230469 272.238281 201.230469 273.769531 C 201.230469 275.304688 202.472656 276.546875 204.007812 276.546875 C 205.542969 276.546875 206.785156 275.304688 206.785156 273.769531 Z M 206.785156 273.769531 " fill-opacity="1" fill-rule="nonzero"/><g clip-path="url(#cafa7af9f1)"><path fill="#ffffff" d="M 310.828125 287.234375 C 318.265625 287.234375 324.292969 281.207031 324.292969 273.769531 C 324.292969 266.335938 318.265625 260.308594 310.828125 260.308594 C 303.394531 260.308594 297.367188 266.335938 297.367188 273.769531 C 297.367188 281.207031 303.394531 287.234375 310.828125 287.234375 Z M 303.15625 273.769531 C 303.15625 269.539062 306.597656 266.097656 310.828125 266.097656 C 315.058594 266.097656 318.5 269.539062 318.5 273.769531 C 318.5 278 315.058594 281.441406 310.828125 281.441406 C 306.597656 281.441406 303.15625 278 303.15625 273.769531 Z M 303.15625 273.769531 " fill-opacity="1" fill-rule="nonzero"/></g><path fill="#ffffff" d="M 313.605469 273.769531 C 313.605469 272.238281 312.363281 270.996094 310.828125 270.996094 C 309.296875 270.996094 308.050781 272.238281 308.050781 273.769531 C 308.050781 275.304688 309.296875 276.546875 310.828125 276.546875 C 312.363281 276.546875 313.605469 275.304688 313.605469 273.769531 Z M 313.605469 273.769531 " fill-opacity="1" fill-rule="nonzero"/><g clip-path="url(#051b488ad4)"><path fill="#ffffff" d="M 35.167969 267.296875 L 159.542969 267.296875 L 159.542969 270.234375 L 35.167969 270.234375 Z M 35.167969 267.296875 " fill-opacity="1" fill-rule="nonzero"/></g><path fill="#ffffff" d="M 48.742188 260.203125 L 159.542969 260.203125 L 159.542969 263.140625 L 48.742188 263.140625 Z M 48.742188 260.203125 " fill-opacity="1" fill-rule="nonzero"/></svg>