<svg xmlns="http://www.w3.org/2000/svg" xmlns:xlink="http://www.w3.org/1999/xlink" width="500" zoomAndPan="magnify" viewBox="0 0 375 374.999991" height="500" preserveAspectRatio="xMidYMid meet" version="1.0"><defs><clipPath id="79d7753227"><path d="M 172 260 L 204 260 L 204 309.5625 L 172 309.5625 Z M 172 260 " clip-rule="nonzero"/></clipPath><clipPath id="e8e4a89cba"><path d="M 260 172 L 309.5625 172 L 309.5625 204 L 260 204 Z M 260 172 " clip-rule="nonzero"/></clipPath></defs><path fill="#100f0d" d="M 151.183594 174.769531 L 183.628906 194.242188 L 183.628906 225.339844 L 151.183594 205.871094 Z M 187.6875 147.996094 L 200.074219 155.441406 L 167.40625 175.054688 L 155.019531 167.609375 Z M 220.355469 167.609375 L 187.6875 187.222656 L 175.296875 179.777344 L 207.964844 160.164062 Z M 224.1875 205.871094 L 191.742188 225.339844 L 191.742188 194.242188 L 224.1875 174.769531 Z M 144.625 164.457031 C 144.5 164.566406 144.355469 164.648438 144.246094 164.757812 C 144.117188 164.902344 144.007812 165.058594 143.898438 165.21875 C 143.800781 165.34375 143.691406 165.457031 143.613281 165.597656 C 143.5 165.773438 143.453125 165.976562 143.375 166.183594 C 143.308594 166.296875 143.246094 166.421875 143.214844 166.546875 C 143.121094 166.898438 143.074219 167.246094 143.074219 167.609375 L 143.074219 208.167969 C 143.074219 209.59375 143.816406 210.910156 145.039062 211.636719 L 185.59375 235.972656 C 185.609375 235.988281 185.625 235.988281 185.640625 236.003906 C 185.65625 236.003906 185.675781 236.019531 185.691406 236.035156 C 185.894531 236.144531 186.117188 236.226562 186.355469 236.304688 C 186.449219 236.335938 186.546875 236.382812 186.625 236.414062 C 186.972656 236.511719 187.335938 236.558594 187.6875 236.558594 C 188.035156 236.558594 188.398438 236.511719 188.746094 236.414062 C 188.828125 236.382812 188.921875 236.335938 189.015625 236.304688 C 189.253906 236.226562 189.476562 236.144531 189.683594 236.035156 C 189.699219 236.019531 189.714844 236.003906 189.730469 236.003906 C 189.746094 235.988281 189.761719 235.988281 189.777344 235.972656 L 230.335938 211.636719 C 231.554688 210.910156 232.300781 209.59375 232.300781 208.167969 L 232.300781 167.609375 C 232.300781 167.246094 232.25 166.898438 232.15625 166.546875 C 232.125 166.4375 232.0625 166.3125 232.015625 166.183594 C 231.933594 165.976562 231.871094 165.773438 231.761719 165.597656 C 231.679688 165.457031 231.570312 165.34375 231.476562 165.21875 C 231.363281 165.058594 231.253906 164.902344 231.125 164.757812 C 231.015625 164.648438 230.875 164.566406 230.746094 164.457031 C 230.605469 164.363281 230.476562 164.21875 230.335938 164.140625 L 189.777344 139.804688 C 188.492188 139.03125 186.878906 139.03125 185.59375 139.804688 L 145.039062 164.140625 C 144.894531 164.21875 144.769531 164.347656 144.625 164.457031 " fill-opacity="1" fill-rule="nonzero"/><path fill="#100f0d" d="M 191.742188 82.441406 L 196.605469 88.917969 L 203.101562 84.070312 L 190.933594 67.847656 C 189.398438 65.804688 185.976562 65.804688 184.4375 67.847656 L 172.269531 84.070312 L 178.765625 88.917969 L 183.628906 82.441406 L 183.628906 114.886719 L 191.742188 114.886719 L 191.742188 82.441406 " fill-opacity="1" fill-rule="nonzero"/><g clip-path="url(#79d7753227)"><path fill="#100f0d" d="M 191.742188 293.339844 L 191.742188 260.890625 L 183.628906 260.890625 L 183.628906 293.339844 L 178.765625 286.84375 L 172.269531 291.722656 L 184.4375 307.945312 C 185.214844 308.960938 186.402344 309.5625 187.6875 309.5625 C 188.96875 309.5625 190.15625 308.960938 190.933594 307.945312 L 203.101562 291.722656 L 196.605469 286.84375 L 191.742188 293.339844 " fill-opacity="1" fill-rule="nonzero"/></g><path fill="#100f0d" d="M 183.628906 131.109375 L 191.742188 131.109375 L 191.742188 122.996094 L 183.628906 122.996094 L 183.628906 131.109375 " fill-opacity="1" fill-rule="nonzero"/><path fill="#100f0d" d="M 183.628906 252.78125 L 191.742188 252.78125 L 191.742188 244.667969 L 183.628906 244.667969 L 183.628906 252.78125 " fill-opacity="1" fill-rule="nonzero"/><path fill="#100f0d" d="M 114.683594 191.945312 L 114.683594 183.832031 L 82.238281 183.832031 L 88.730469 178.96875 L 83.851562 172.472656 L 67.628906 184.640625 C 66.617188 185.417969 66.015625 186.605469 66.015625 187.890625 C 66.015625 189.171875 66.617188 190.359375 67.628906 191.136719 L 83.851562 203.304688 L 88.730469 196.808594 L 82.238281 191.945312 L 114.683594 191.945312 " fill-opacity="1" fill-rule="nonzero"/><g clip-path="url(#e8e4a89cba)"><path fill="#100f0d" d="M 291.503906 172.472656 L 286.65625 178.96875 L 293.136719 183.832031 L 260.6875 183.832031 L 260.6875 191.945312 L 293.136719 191.945312 L 286.65625 196.808594 L 291.503906 203.304688 L 307.726562 191.136719 C 308.757812 190.359375 309.359375 189.171875 309.359375 187.890625 C 309.359375 186.605469 308.757812 185.417969 307.726562 184.640625 L 291.503906 172.472656 " fill-opacity="1" fill-rule="nonzero"/></g><path fill="#100f0d" d="M 130.90625 191.945312 L 130.90625 183.832031 L 122.792969 183.832031 L 122.792969 191.945312 L 130.90625 191.945312 " fill-opacity="1" fill-rule="nonzero"/><path fill="#100f0d" d="M 252.578125 191.945312 L 252.578125 183.832031 L 244.464844 183.832031 L 244.464844 191.945312 L 252.578125 191.945312 " fill-opacity="1" fill-rule="nonzero"/><path fill="#100f0d" d="M 138.9375 133.40625 L 115.996094 110.449219 L 124.015625 111.605469 L 125.171875 103.574219 L 105.097656 100.707031 C 103.816406 100.515625 102.5625 100.960938 101.644531 101.847656 C 100.757812 102.765625 100.328125 104.035156 100.503906 105.300781 L 103.371094 125.375 L 111.402344 124.21875 L 110.246094 116.199219 L 133.203125 139.140625 L 138.9375 133.40625 " fill-opacity="1" fill-rule="nonzero"/><path fill="#100f0d" d="M 263.96875 251.5625 L 265.125 259.578125 L 242.167969 236.636719 L 236.433594 242.371094 L 259.375 265.328125 L 251.359375 264.171875 L 250.203125 272.203125 L 270.273438 275.070312 C 270.464844 275.101562 270.671875 275.117188 270.859375 275.117188 C 271.921875 275.117188 272.953125 274.691406 273.726562 273.929688 C 274.613281 273.011719 275.042969 271.746094 274.867188 270.476562 L 272 250.402344 L 263.96875 251.5625 " fill-opacity="1" fill-rule="nonzero"/><path fill="#100f0d" d="M 150.40625 144.875 L 144.671875 139.140625 L 138.9375 144.875 L 144.671875 150.609375 L 150.40625 144.875 " fill-opacity="1" fill-rule="nonzero"/><path fill="#100f0d" d="M 230.699219 225.167969 L 224.964844 230.902344 L 230.699219 236.636719 L 236.433594 230.902344 L 230.699219 225.167969 " fill-opacity="1" fill-rule="nonzero"/><path fill="#100f0d" d="M 133.203125 236.636719 L 110.246094 259.578125 L 111.402344 251.5625 L 103.371094 250.402344 L 100.503906 270.476562 C 100.328125 271.746094 100.757812 273.011719 101.644531 273.929688 C 102.421875 274.691406 103.449219 275.117188 104.511719 275.117188 C 104.703125 275.117188 104.90625 275.101562 105.097656 275.070312 L 125.171875 272.203125 L 124.015625 264.171875 L 115.996094 265.328125 L 138.9375 242.371094 L 133.203125 236.636719 " fill-opacity="1" fill-rule="nonzero"/><path fill="#100f0d" d="M 272 125.375 L 274.867188 105.300781 C 275.042969 104.035156 274.613281 102.765625 273.726562 101.847656 C 272.824219 100.960938 271.558594 100.515625 270.273438 100.707031 L 250.203125 103.574219 L 251.359375 111.605469 L 259.375 110.449219 L 236.433594 133.40625 L 242.167969 139.140625 L 265.125 116.199219 L 263.96875 124.21875 L 272 125.375 " fill-opacity="1" fill-rule="nonzero"/><path fill="#100f0d" d="M 138.9375 230.902344 L 144.671875 236.636719 L 150.40625 230.902344 L 144.671875 225.167969 L 138.9375 230.902344 " fill-opacity="1" fill-rule="nonzero"/><path fill="#100f0d" d="M 236.433594 144.875 L 230.699219 139.140625 L 224.964844 144.875 L 230.699219 150.609375 L 236.433594 144.875 " fill-opacity="1" fill-rule="nonzero"/></svg>