<svg xmlns="http://www.w3.org/2000/svg" xmlns:xlink="http://www.w3.org/1999/xlink" width="500" zoomAndPan="magnify" viewBox="0 0 375 374.999991" height="500" preserveAspectRatio="xMidYMid meet" version="1.0"><defs><clipPath id="bf7db08b8d"><path d="M 172 260 L 203 260 L 203 309.5625 L 172 309.5625 Z M 172 260 " clip-rule="nonzero"/></clipPath></defs><path fill="#ffffff" d="M 151.054688 174.601562 L 183.449219 194.042969 L 183.449219 225.09375 L 151.054688 205.65625 Z M 187.5 147.871094 L 199.867188 155.304688 L 167.25 174.886719 L 154.882812 167.453125 Z M 220.117188 167.453125 L 187.5 187.035156 L 175.128906 179.601562 L 207.746094 160.019531 Z M 223.945312 205.65625 L 191.546875 225.09375 L 191.546875 194.042969 L 223.945312 174.601562 Z M 144.503906 164.304688 C 144.378906 164.417969 144.234375 164.496094 144.125 164.605469 C 143.996094 164.75 143.886719 164.90625 143.777344 165.066406 C 143.683594 165.191406 143.570312 165.300781 143.492188 165.445312 C 143.382812 165.617188 143.332031 165.824219 143.253906 166.03125 C 143.191406 166.140625 143.128906 166.265625 143.097656 166.394531 C 143 166.742188 142.953125 167.089844 142.953125 167.453125 L 142.953125 207.949219 C 142.953125 209.371094 143.699219 210.683594 144.914062 211.414062 L 185.410156 235.710938 C 185.425781 235.726562 185.441406 235.726562 185.457031 235.742188 C 185.472656 235.742188 185.488281 235.757812 185.503906 235.773438 C 185.710938 235.882812 185.933594 235.960938 186.167969 236.042969 C 186.265625 236.074219 186.359375 236.121094 186.4375 236.152344 C 186.785156 236.246094 187.152344 236.296875 187.5 236.296875 C 187.847656 236.296875 188.210938 236.246094 188.558594 236.152344 C 188.636719 236.121094 188.730469 236.074219 188.828125 236.042969 C 189.066406 235.960938 189.285156 235.882812 189.492188 235.773438 C 189.507812 235.757812 189.523438 235.742188 189.539062 235.742188 C 189.554688 235.726562 189.570312 235.726562 189.585938 235.710938 L 230.082031 211.414062 C 231.300781 210.683594 232.042969 209.371094 232.042969 207.949219 L 232.042969 167.453125 C 232.042969 167.089844 231.996094 166.742188 231.902344 166.394531 C 231.867188 166.28125 231.804688 166.15625 231.757812 166.03125 C 231.679688 165.824219 231.617188 165.617188 231.503906 165.445312 C 231.425781 165.300781 231.316406 165.191406 231.21875 165.066406 C 231.109375 164.90625 231 164.75 230.871094 164.605469 C 230.761719 164.496094 230.621094 164.417969 230.492188 164.304688 C 230.351562 164.210938 230.222656 164.070312 230.082031 163.988281 L 189.585938 139.691406 C 188.304688 138.917969 186.691406 138.917969 185.410156 139.691406 L 144.914062 163.988281 C 144.773438 164.070312 144.648438 164.195312 144.503906 164.304688 " fill-opacity="1" fill-rule="nonzero"/><path fill="#ffffff" d="M 191.546875 82.414062 L 196.402344 88.882812 L 202.890625 84.042969 L 190.742188 67.84375 C 189.207031 65.804688 185.789062 65.804688 184.253906 67.84375 L 172.105469 84.042969 L 178.59375 88.882812 L 183.449219 82.414062 L 183.449219 114.808594 L 191.546875 114.808594 L 191.546875 82.414062 " fill-opacity="1" fill-rule="nonzero"/><g clip-path="url(#bf7db08b8d)"><path fill="#ffffff" d="M 191.546875 292.988281 L 191.546875 260.59375 L 183.449219 260.59375 L 183.449219 292.988281 L 178.59375 286.503906 L 172.105469 291.375 L 184.253906 307.574219 C 185.03125 308.585938 186.21875 309.1875 187.5 309.1875 C 188.78125 309.1875 189.964844 308.585938 190.742188 307.574219 L 202.890625 291.375 L 196.402344 286.503906 L 191.546875 292.988281 " fill-opacity="1" fill-rule="nonzero"/></g><path fill="#ffffff" d="M 183.449219 131.007812 L 191.546875 131.007812 L 191.546875 122.910156 L 183.449219 122.910156 L 183.449219 131.007812 " fill-opacity="1" fill-rule="nonzero"/><path fill="#ffffff" d="M 183.449219 252.492188 L 191.546875 252.492188 L 191.546875 244.394531 L 183.449219 244.394531 L 183.449219 252.492188 " fill-opacity="1" fill-rule="nonzero"/><path fill="#ffffff" d="M 114.609375 191.75 L 114.609375 183.652344 L 82.210938 183.652344 L 88.695312 178.796875 L 83.824219 172.308594 L 67.628906 184.457031 C 66.613281 185.234375 66.011719 186.417969 66.011719 187.699219 C 66.011719 188.980469 66.613281 190.167969 67.628906 190.945312 L 83.824219 203.09375 L 88.695312 196.605469 L 82.210938 191.75 L 114.609375 191.75 " fill-opacity="1" fill-rule="nonzero"/><path fill="#ffffff" d="M 291.15625 172.308594 L 286.316406 178.796875 L 292.785156 183.652344 L 260.390625 183.652344 L 260.390625 191.75 L 292.785156 191.75 L 286.316406 196.605469 L 291.15625 203.09375 L 307.355469 190.945312 C 308.382812 190.167969 308.984375 188.980469 308.984375 187.699219 C 308.984375 186.417969 308.382812 185.234375 307.355469 184.457031 L 291.15625 172.308594 " fill-opacity="1" fill-rule="nonzero"/><path fill="#ffffff" d="M 130.804688 191.75 L 130.804688 183.652344 L 122.707031 183.652344 L 122.707031 191.75 L 130.804688 191.75 " fill-opacity="1" fill-rule="nonzero"/><path fill="#ffffff" d="M 252.289062 191.75 L 252.289062 183.652344 L 244.191406 183.652344 L 244.191406 191.75 L 252.289062 191.75 " fill-opacity="1" fill-rule="nonzero"/><path fill="#ffffff" d="M 138.824219 133.300781 L 115.921875 110.378906 L 123.925781 111.535156 L 125.078125 103.515625 L 105.039062 100.652344 C 103.757812 100.460938 102.507812 100.90625 101.589844 101.792969 C 100.703125 102.707031 100.277344 103.972656 100.449219 105.238281 L 103.3125 125.28125 L 111.332031 124.128906 L 110.179688 116.121094 L 133.097656 139.027344 L 138.824219 133.300781 " fill-opacity="1" fill-rule="nonzero"/><path fill="#ffffff" d="M 263.664062 251.273438 L 264.820312 259.277344 L 241.898438 236.375 L 236.171875 242.101562 L 259.078125 265.019531 L 251.074219 263.867188 L 249.917969 271.886719 L 269.960938 274.75 C 270.148438 274.78125 270.355469 274.796875 270.542969 274.796875 C 271.605469 274.796875 272.632812 274.371094 273.40625 273.609375 C 274.292969 272.691406 274.722656 271.425781 274.546875 270.164062 L 271.683594 250.121094 L 263.664062 251.273438 " fill-opacity="1" fill-rule="nonzero"/><path fill="#ffffff" d="M 150.277344 144.753906 L 144.550781 139.027344 L 138.824219 144.753906 L 144.550781 150.480469 L 150.277344 144.753906 " fill-opacity="1" fill-rule="nonzero"/><path fill="#ffffff" d="M 230.445312 224.921875 L 224.71875 230.648438 L 230.445312 236.375 L 236.171875 230.648438 L 230.445312 224.921875 " fill-opacity="1" fill-rule="nonzero"/><path fill="#ffffff" d="M 133.097656 236.375 L 110.179688 259.277344 L 111.332031 251.273438 L 103.3125 250.121094 L 100.449219 270.164062 C 100.277344 271.425781 100.703125 272.691406 101.589844 273.609375 C 102.363281 274.371094 103.390625 274.796875 104.453125 274.796875 C 104.640625 274.796875 104.847656 274.78125 105.039062 274.75 L 125.078125 271.886719 L 123.925781 263.867188 L 115.921875 265.019531 L 138.824219 242.101562 L 133.097656 236.375 " fill-opacity="1" fill-rule="nonzero"/><path fill="#ffffff" d="M 271.683594 125.28125 L 274.546875 105.238281 C 274.722656 103.972656 274.292969 102.707031 273.40625 101.792969 C 272.507812 100.90625 271.242188 100.460938 269.960938 100.652344 L 249.917969 103.515625 L 251.074219 111.535156 L 259.078125 110.378906 L 236.171875 133.300781 L 241.898438 139.027344 L 264.820312 116.121094 L 263.664062 124.128906 L 271.683594 125.28125 " fill-opacity="1" fill-rule="nonzero"/><path fill="#ffffff" d="M 138.824219 230.648438 L 144.550781 236.375 L 150.277344 230.648438 L 144.550781 224.921875 L 138.824219 230.648438 " fill-opacity="1" fill-rule="nonzero"/><path fill="#ffffff" d="M 236.171875 144.753906 L 230.445312 139.027344 L 224.71875 144.753906 L 230.445312 150.480469 L 236.171875 144.753906 " fill-opacity="1" fill-rule="nonzero"/></svg>