<svg xmlns="http://www.w3.org/2000/svg" xmlns:xlink="http://www.w3.org/1999/xlink" width="500" zoomAndPan="magnify" viewBox="0 0 375 374.999991" height="500" preserveAspectRatio="xMidYMid meet" version="1.0"><defs><clipPath id="8c19d19e38"><path d="M 39 87.722656 L 242 87.722656 L 242 239 L 39 239 Z M 39 87.722656 " clip-rule="nonzero"/></clipPath><clipPath id="d9701a8aba"><path d="M 172 216 L 339.667969 216 L 339.667969 277 L 172 277 Z M 172 216 " clip-rule="nonzero"/></clipPath><clipPath id="43ed499e22"><path d="M 190 260 L 218 260 L 218 287.222656 L 190 287.222656 Z M 190 260 " clip-rule="nonzero"/></clipPath><clipPath id="c41f66aca6"><path d="M 297 260 L 325 260 L 325 287.222656 L 297 287.222656 Z M 297 260 " clip-rule="nonzero"/></clipPath><clipPath id="c2f113ca9c"><path d="M 35.167969 267 L 160 267 L 160 271 L 35.167969 271 Z M 35.167969 267 " clip-rule="nonzero"/></clipPath></defs><g clip-path="url(#8c19d19e38)"><path fill="#000000" d="M 58.589844 148.070312 L 65.683594 144.558594 L 65.683594 232.285156 L 39.421875 232.285156 L 39.421875 238.890625 L 168.007812 238.890625 L 168.007812 208.609375 L 161.664062 208.609375 L 161.664062 225.140625 L 157.386719 225.140625 L 157.386719 205.5625 L 136.582031 205.5625 L 136.582031 207.167969 L 148.160156 207.167969 L 148.160156 208.609375 L 136.582031 208.609375 L 136.582031 225.140625 L 132.304688 225.140625 L 132.304688 205.5625 L 111.5 205.5625 L 111.5 207.167969 L 123.078125 207.167969 L 123.078125 208.609375 L 111.5 208.609375 L 111.5 225.140625 L 107.222656 225.140625 L 107.222656 205.5625 L 86.417969 205.5625 L 86.417969 207.167969 L 97.996094 207.167969 L 97.996094 208.609375 L 86.417969 208.609375 L 86.417969 225.140625 L 73.425781 225.140625 L 73.425781 140.730469 L 147.753906 103.945312 L 220.542969 139.367188 L 220.542969 189.632812 L 228.285156 189.632812 L 228.285156 143.136719 L 235.421875 146.609375 L 241.773438 133.550781 L 147.699219 87.769531 L 52.152344 135.058594 Z M 58.589844 148.070312 " fill-opacity="1" fill-rule="nonzero"/></g><path fill="#000000" d="M 161.664062 205.5625 L 168.007812 205.5625 L 168.007812 207.167969 L 161.664062 207.167969 Z M 161.664062 205.5625 " fill-opacity="1" fill-rule="nonzero"/><path fill="#000000" d="M 111.5 182.355469 L 123.078125 182.355469 L 123.078125 183.796875 L 111.5 183.796875 L 111.5 201.558594 L 132.304688 201.558594 L 132.304688 180.75 L 111.5 180.75 Z M 111.5 182.355469 " fill-opacity="1" fill-rule="nonzero"/><path fill="#000000" d="M 86.417969 182.355469 L 97.996094 182.355469 L 97.996094 183.796875 L 86.417969 183.796875 L 86.417969 201.558594 L 107.222656 201.558594 L 107.222656 180.75 L 86.417969 180.75 Z M 86.417969 182.355469 " fill-opacity="1" fill-rule="nonzero"/><path fill="#000000" d="M 136.582031 182.355469 L 148.160156 182.355469 L 148.160156 183.796875 L 136.582031 183.796875 L 136.582031 201.558594 L 157.386719 201.558594 L 157.386719 180.75 L 136.582031 180.75 Z M 136.582031 182.355469 " fill-opacity="1" fill-rule="nonzero"/><path fill="#000000" d="M 161.664062 180.75 L 161.664062 182.355469 L 173.242188 182.355469 L 173.242188 183.796875 L 161.664062 183.796875 L 161.664062 201.558594 L 168.007812 201.558594 L 168.007812 189.632812 L 182.46875 189.632812 L 182.46875 180.75 Z M 161.664062 180.75 " fill-opacity="1" fill-rule="nonzero"/><path fill="#000000" d="M 186.746094 180.75 L 186.746094 182.355469 L 198.324219 182.355469 L 198.324219 183.796875 L 186.746094 183.796875 L 186.746094 189.632812 L 207.550781 189.632812 L 207.550781 180.75 Z M 186.746094 180.75 " fill-opacity="1" fill-rule="nonzero"/><path fill="#000000" d="M 144.84375 131.125 L 124.042969 131.125 L 124.042969 132.726562 L 135.617188 132.726562 L 135.617188 134.167969 L 124.042969 134.167969 L 124.042969 151.933594 L 144.84375 151.933594 Z M 144.84375 131.125 " fill-opacity="1" fill-rule="nonzero"/><path fill="#000000" d="M 169.925781 131.125 L 149.125 131.125 L 149.125 132.726562 L 160.699219 132.726562 L 160.699219 134.167969 L 149.125 134.167969 L 149.125 151.933594 L 169.925781 151.933594 Z M 169.925781 131.125 " fill-opacity="1" fill-rule="nonzero"/><path fill="#000000" d="M 111.5 157.542969 L 123.078125 157.542969 L 123.078125 158.980469 L 111.5 158.980469 L 111.5 176.746094 L 132.304688 176.746094 L 132.304688 155.9375 L 111.5 155.9375 Z M 111.5 157.542969 " fill-opacity="1" fill-rule="nonzero"/><path fill="#000000" d="M 86.417969 157.542969 L 97.996094 157.542969 L 97.996094 158.980469 L 86.417969 158.980469 L 86.417969 176.746094 L 107.222656 176.746094 L 107.222656 155.9375 L 86.417969 155.9375 Z M 86.417969 157.542969 " fill-opacity="1" fill-rule="nonzero"/><path fill="#000000" d="M 136.582031 157.542969 L 148.160156 157.542969 L 148.160156 158.980469 L 136.582031 158.980469 L 136.582031 176.746094 L 157.386719 176.746094 L 157.386719 155.9375 L 136.582031 155.9375 Z M 136.582031 157.542969 " fill-opacity="1" fill-rule="nonzero"/><path fill="#000000" d="M 161.664062 157.542969 L 173.242188 157.542969 L 173.242188 158.980469 L 161.664062 158.980469 L 161.664062 176.746094 L 182.46875 176.746094 L 182.46875 155.9375 L 161.664062 155.9375 Z M 161.664062 157.542969 " fill-opacity="1" fill-rule="nonzero"/><path fill="#000000" d="M 207.550781 155.9375 L 186.746094 155.9375 L 186.746094 157.542969 L 198.324219 157.542969 L 198.324219 158.980469 L 186.746094 158.980469 L 186.746094 176.746094 L 207.550781 176.746094 Z M 207.550781 155.9375 " fill-opacity="1" fill-rule="nonzero"/><path fill="#000000" d="M 172.847656 194.472656 L 280.511719 194.472656 L 280.511719 249.425781 L 172.847656 249.425781 Z M 172.847656 194.472656 " fill-opacity="1" fill-rule="nonzero"/><g clip-path="url(#d9701a8aba)"><path fill="#000000" d="M 284.1875 252.839844 L 177.472656 252.839844 L 177.472656 258.679688 L 172.847656 258.679688 L 172.847656 269.78125 L 177.472656 269.78125 L 177.472656 273.035156 L 183.957031 273.035156 L 183.957031 276.402344 L 187.804688 276.402344 C 187.660156 275.53125 187.566406 274.640625 187.566406 273.726562 C 187.566406 264.710938 194.902344 257.375 203.914062 257.375 C 212.929688 257.375 220.265625 264.710938 220.265625 273.726562 C 220.265625 274.640625 220.171875 275.53125 220.027344 276.402344 L 223.875 276.402344 L 223.875 273.035156 L 290.722656 273.035156 L 290.722656 276.402344 L 294.570312 276.402344 C 294.425781 275.53125 294.332031 274.640625 294.332031 273.726562 C 294.332031 264.710938 301.664062 257.375 310.679688 257.375 C 319.695312 257.375 327.03125 264.710938 327.03125 273.726562 C 327.03125 274.640625 326.9375 275.53125 326.792969 276.402344 L 330.640625 276.402344 L 330.640625 273.035156 L 332.390625 273.035156 C 334.398438 273.035156 336.085938 271.644531 336.574219 269.78125 L 339.644531 269.78125 L 339.644531 258.679688 L 336.730469 258.679688 L 336.730469 250.4375 C 336.730469 248.050781 335.820312 244.367188 334.703125 242.257812 L 322.957031 220 C 321.84375 217.886719 318.980469 216.160156 316.59375 216.160156 L 288.527344 216.160156 C 287.269531 216.160156 286.144531 216.710938 285.347656 217.574219 C 284.632812 218.347656 284.1875 219.371094 284.1875 220.5 Z M 301.21875 251.066406 L 291.398438 251.066406 L 291.398438 248.75 L 301.21875 248.75 Z M 319.121094 222.027344 L 329.25 241.222656 L 300.464844 241.222656 L 300.464844 220.5 L 316.59375 220.5 C 317.367188 220.5 318.757812 221.34375 319.121094 222.027344 Z M 298.148438 220.5 L 298.148438 241.222656 L 288.527344 241.222656 L 288.527344 220.5 Z M 298.148438 220.5 " fill-opacity="1" fill-rule="nonzero"/></g><g clip-path="url(#43ed499e22)"><path fill="#000000" d="M 203.917969 287.1875 C 211.347656 287.1875 217.371094 281.160156 217.371094 273.726562 C 217.371094 266.292969 211.347656 260.269531 203.917969 260.269531 C 196.484375 260.269531 190.460938 266.292969 190.460938 273.726562 C 190.460938 281.160156 196.484375 287.1875 203.917969 287.1875 Z M 196.25 273.726562 C 196.25 269.496094 199.6875 266.058594 203.914062 266.058594 C 208.144531 266.058594 211.585938 269.496094 211.585938 273.726562 C 211.585938 277.957031 208.144531 281.398438 203.914062 281.398438 C 199.6875 281.398438 196.25 277.957031 196.25 273.726562 Z M 196.25 273.726562 " fill-opacity="1" fill-rule="nonzero"/></g><path fill="#000000" d="M 206.691406 273.726562 C 206.691406 272.195312 205.449219 270.953125 203.917969 270.953125 C 202.382812 270.953125 201.140625 272.195312 201.140625 273.726562 C 201.140625 275.261719 202.382812 276.503906 203.917969 276.503906 C 205.449219 276.503906 206.691406 275.261719 206.691406 273.726562 Z M 206.691406 273.726562 " fill-opacity="1" fill-rule="nonzero"/><g clip-path="url(#c41f66aca6)"><path fill="#000000" d="M 310.679688 287.1875 C 318.113281 287.1875 324.136719 281.160156 324.136719 273.726562 C 324.136719 266.292969 318.113281 260.269531 310.679688 260.269531 C 303.25 260.269531 297.226562 266.292969 297.226562 273.726562 C 297.226562 281.160156 303.25 287.1875 310.679688 287.1875 Z M 303.011719 273.726562 C 303.011719 269.496094 306.453125 266.058594 310.679688 266.058594 C 314.910156 266.058594 318.347656 269.496094 318.347656 273.726562 C 318.347656 277.957031 314.910156 281.398438 310.679688 281.398438 C 306.453125 281.398438 303.011719 277.957031 303.011719 273.726562 Z M 303.011719 273.726562 " fill-opacity="1" fill-rule="nonzero"/></g><path fill="#000000" d="M 313.457031 273.726562 C 313.457031 272.195312 312.214844 270.953125 310.679688 270.953125 C 309.148438 270.953125 307.90625 272.195312 307.90625 273.726562 C 307.90625 275.261719 309.148438 276.503906 310.679688 276.503906 C 312.214844 276.503906 313.457031 275.261719 313.457031 273.726562 Z M 313.457031 273.726562 " fill-opacity="1" fill-rule="nonzero"/><g clip-path="url(#c2f113ca9c)"><path fill="#000000" d="M 35.167969 267.253906 L 159.476562 267.253906 L 159.476562 270.191406 L 35.167969 270.191406 Z M 35.167969 267.253906 " fill-opacity="1" fill-rule="nonzero"/></g><path fill="#000000" d="M 48.734375 260.164062 L 159.476562 260.164062 L 159.476562 263.097656 L 48.734375 263.097656 Z M 48.734375 260.164062 " fill-opacity="1" fill-rule="nonzero"/></svg>