<svg xmlns="http://www.w3.org/2000/svg" xmlns:xlink="http://www.w3.org/1999/xlink" width="500" zoomAndPan="magnify" viewBox="0 0 375 374.999991" height="500" preserveAspectRatio="xMidYMid meet" version="1.0"><defs><clipPath id="6e6de19aac"><path d="M 155 133 L 277 133 L 277 281.449219 L 155 281.449219 Z M 155 133 " clip-rule="nonzero"/></clipPath><clipPath id="d440b550e4"><path d="M 248 106 L 357 106 L 357 281.449219 L 248 281.449219 Z M 248 106 " clip-rule="nonzero"/></clipPath></defs><path fill="#000000" d="M 168.96875 233.832031 C 165.976562 233.832031 163.347656 231.640625 162.886719 228.609375 C 162.375 225.253906 164.679688 222.109375 168.054688 221.597656 L 193.5 217.707031 C 196.871094 217.191406 200 219.5 200.511719 222.875 C 201.027344 226.226562 198.722656 229.371094 195.347656 229.886719 L 169.921875 233.757812 C 169.597656 233.8125 169.292969 233.832031 168.96875 233.832031 Z M 168.96875 233.832031 " fill-opacity="1" fill-rule="nonzero"/><path fill="#000000" d="M 95.796875 245.019531 C 92.804688 245.019531 90.175781 242.828125 89.714844 239.796875 C 89.203125 236.445312 91.507812 233.300781 94.882812 232.785156 L 148.976562 224.511719 C 152.328125 223.996094 155.472656 226.304688 155.988281 229.675781 C 156.503906 233.03125 154.195312 236.175781 150.824219 236.691406 L 96.730469 244.964844 C 96.425781 244.984375 96.121094 245.019531 95.796875 245.019531 Z M 95.796875 245.019531 " fill-opacity="1" fill-rule="nonzero"/><path fill="#000000" d="M 57.21875 250.910156 C 54.226562 250.910156 51.597656 248.71875 51.140625 245.6875 C 50.625 242.332031 52.929688 239.1875 56.304688 238.675781 L 67.855469 236.902344 C 71.210938 236.386719 74.355469 238.691406 74.867188 242.066406 C 75.382812 245.421875 73.078125 248.566406 69.703125 249.082031 L 58.152344 250.855469 C 57.828125 250.890625 57.523438 250.910156 57.21875 250.910156 Z M 57.21875 250.910156 " fill-opacity="1" fill-rule="nonzero"/><path fill="#000000" d="M 65.242188 226.019531 C 62.25 226.019531 59.621094 223.828125 59.164062 220.796875 C 58.648438 217.441406 60.953125 214.296875 64.328125 213.78125 L 168.167969 197.921875 C 171.542969 197.410156 174.667969 199.714844 175.183594 203.089844 C 175.695312 206.441406 173.390625 209.589844 170.015625 210.101562 L 66.175781 225.941406 C 65.851562 226 65.546875 226.019531 65.242188 226.019531 Z M 65.242188 226.019531 " fill-opacity="1" fill-rule="nonzero"/><path fill="#000000" d="M 45.097656 205.625 C 42.105469 205.625 39.472656 203.433594 39.015625 200.402344 C 38.5 197.046875 40.808594 193.902344 44.183594 193.386719 L 121.261719 181.609375 C 124.617188 181.09375 127.761719 183.398438 128.273438 186.773438 C 128.789062 190.128906 126.484375 193.273438 123.109375 193.789062 L 46.03125 205.546875 C 45.726562 205.585938 45.402344 205.625 45.097656 205.625 Z M 45.097656 205.625 " fill-opacity="1" fill-rule="nonzero"/><path fill="#000000" d="M 18.335938 209.703125 C 15.34375 209.703125 12.714844 207.511719 12.257812 204.480469 C 11.742188 201.125 14.046875 197.980469 17.421875 197.464844 L 23.273438 196.570312 C 26.644531 196.035156 29.773438 198.363281 30.285156 201.734375 C 30.800781 205.089844 28.496094 208.234375 25.121094 208.75 L 19.269531 209.644531 C 18.964844 209.683594 18.640625 209.703125 18.335938 209.703125 Z M 18.335938 209.703125 " fill-opacity="1" fill-rule="nonzero"/><path fill="#000000" d="M 147.527344 189.976562 C 144.535156 189.976562 141.902344 187.785156 141.445312 184.753906 C 140.929688 181.398438 143.238281 178.253906 146.609375 177.738281 L 159.914062 175.699219 C 163.289062 175.183594 166.414062 177.492188 166.929688 180.863281 C 167.445312 184.21875 165.136719 187.363281 161.765625 187.878906 L 148.460938 189.917969 C 148.15625 189.9375 147.851562 189.976562 147.527344 189.976562 Z M 147.527344 189.976562 " fill-opacity="1" fill-rule="nonzero"/><path fill="#000000" d="M 94.273438 177.128906 C 91.28125 177.128906 88.648438 174.9375 88.191406 171.90625 C 87.675781 168.550781 89.984375 165.40625 93.355469 164.890625 L 170.609375 153.09375 C 173.960938 152.578125 177.109375 154.886719 177.621094 158.257812 C 178.136719 161.613281 175.832031 164.757812 172.457031 165.273438 L 95.207031 177.070312 C 94.882812 177.109375 94.578125 177.128906 94.273438 177.128906 Z M 94.273438 177.128906 " fill-opacity="1" fill-rule="nonzero"/><g clip-path="url(#6e6de19aac)"><path fill="#000000" d="M 270.789062 281.234375 C 270.160156 281.234375 269.550781 281.140625 268.9375 280.949219 L 175.335938 251.519531 C 172.09375 250.492188 170.285156 247.042969 171.3125 243.800781 C 172.34375 240.5625 175.773438 238.75 179.03125 239.78125 L 263.242188 266.253906 L 249.308594 173.355469 L 159.363281 145.070312 C 156.121094 144.039062 154.3125 140.589844 155.339844 137.351562 C 156.371094 134.109375 159.800781 132.300781 163.058594 133.328125 L 256.664062 162.757812 C 258.914062 163.460938 260.554688 165.386719 260.914062 167.714844 L 276.886719 274.164062 C 277.210938 276.261719 276.410156 278.375 274.789062 279.769531 C 273.667969 280.722656 272.238281 281.234375 270.789062 281.234375 Z M 270.789062 281.234375 " fill-opacity="1" fill-rule="nonzero"/></g><g clip-path="url(#d440b550e4)"><path fill="#000000" d="M 270.789062 281.234375 C 269.96875 281.234375 269.128906 281.0625 268.347656 280.738281 C 266.386719 279.902344 265.011719 278.109375 264.6875 275.992188 L 248.714844 169.542969 C 248.375 167.238281 249.363281 164.910156 251.269531 163.578125 L 331.265625 107.636719 C 333.019531 106.414062 335.269531 106.1875 337.230469 107.027344 C 339.195312 107.863281 340.566406 109.65625 340.890625 111.773438 L 356.863281 218.222656 C 357.207031 220.527344 356.214844 222.855469 354.308594 224.1875 L 274.3125 280.128906 C 273.285156 280.855469 272.046875 281.234375 270.789062 281.234375 Z M 261.488281 171.488281 L 275.417969 264.328125 L 344.132812 216.257812 L 330.199219 123.417969 Z M 261.488281 171.488281 " fill-opacity="1" fill-rule="nonzero"/></g><path fill="#000000" d="M 254.816406 174.785156 C 254.1875 174.785156 253.578125 174.6875 252.96875 174.5 L 159.363281 145.070312 C 157.132812 144.363281 155.472656 142.457031 155.132812 140.132812 C 154.769531 137.808594 155.761719 135.480469 157.683594 134.148438 L 237.660156 78.1875 C 239.222656 77.101562 241.207031 76.796875 243.035156 77.367188 L 336.660156 106.796875 C 338.890625 107.503906 340.546875 109.40625 340.890625 111.734375 C 341.253906 114.058594 340.261719 116.382812 338.335938 117.71875 L 258.34375 173.660156 C 257.3125 174.402344 256.074219 174.785156 254.816406 174.785156 Z M 174.992188 137.0625 L 253.765625 161.824219 L 321.011719 114.78125 L 242.234375 90.023438 Z M 174.992188 137.0625 " fill-opacity="1" fill-rule="nonzero"/></svg>